<?xml version="1.0" encoding="UTF-8"?>
<svg version="1.1" xmlns="http://www.w3.org/2000/svg" width="223" height="256">
<path d="M0 0 C4.62 0.99 9.24 1.98 14 3 C21.20363638 4.06319985 28.28708737 4.15402436 35.56201172 4.16113281 C36.791017 4.16609772 38.02002228 4.17106262 39.28627014 4.17617798 C42.63609553 4.18821827 45.98585905 4.19572756 49.3356986 4.20018864 C51.43898241 4.20313803 53.542261 4.20724632 55.64554214 4.21169281 C62.25621158 4.22534526 68.8668688 4.23502102 75.47755134 4.2388947 C83.0519378 4.24336002 90.62614241 4.26084606 98.20047367 4.2898953 C104.09135281 4.31168592 109.98218148 4.32160825 115.8731004 4.32293582 C119.37411922 4.32397219 122.87496666 4.32962431 126.37594223 4.34775543 C141.54594849 4.42191037 156.1125685 4.07139842 171 1 C172.65 0.67 174.3 0.34 176 0 C176 13.86 176 27.72 176 42 C182.27 42 188.54 42 195 42 C195 43.32 195 44.64 195 46 C194.41992188 46.02578125 193.83984375 46.0515625 193.2421875 46.078125 C186.38925248 46.57569784 182.39304059 48.34825232 177.6875 53.5625 C174.93033321 57.54507425 174.87167203 60.62470562 174.85955811 65.35664368 C174.85658698 66.00425838 174.85361586 66.65187309 174.8505547 67.31911248 C174.84187055 69.49310951 174.8403597 71.66705145 174.83886719 73.84106445 C174.83423881 75.39825559 174.82921412 76.9554456 174.82382202 78.51263428 C174.81069784 82.74619512 174.80425302 86.9797401 174.79981136 91.21331811 C174.79688064 93.85819414 174.79277583 96.50306583 174.78830719 99.14793968 C174.77463214 107.42288134 174.76496555 115.69781309 174.7611053 123.97276527 C174.75662453 133.52545312 174.73907582 143.07799789 174.7101047 152.63064224 C174.68848922 160.01417786 174.67840109 167.39767323 174.67706418 174.78124017 C174.67601605 179.19127062 174.67010648 183.60116657 174.65224457 188.01116371 C174.6357662 192.16031552 174.63360719 196.30923168 174.64238358 200.45840454 C174.64315408 201.97975991 174.63880941 203.50112794 174.62892532 205.0224514 C174.61620434 207.10271599 174.62208253 209.18214617 174.63250732 211.2624054 C174.63104076 212.42549886 174.6295742 213.58859232 174.6280632 214.78693104 C175.04981157 218.43030966 176.22725942 220.81454424 178 224 C178.33 224.99 178.66 225.98 179 227 C182.45041465 228.70375715 186.10177809 229.64143516 189.8125 230.625 C190.78832031 230.88539063 191.76414063 231.14578125 192.76953125 231.4140625 C193.50558594 231.60742188 194.24164063 231.80078125 195 232 C195 232.99 195 233.98 195 235 C167.28 235 139.56 235 111 235 C111 234.01 111 233.02 111 232 C111.80824219 231.84144531 112.61648437 231.68289062 113.44921875 231.51953125 C121.87563885 229.76345212 121.87563885 229.76345212 128 224 C130.72615527 219.37125875 131.38608199 215.96892141 131.43237305 210.61767578 C131.4425647 209.90478897 131.45275635 209.19190216 131.46325684 208.45741272 C131.49325699 206.11996469 131.50263249 203.78292732 131.51171875 201.4453125 C131.52857513 199.81719617 131.54672667 198.18909277 131.56611633 196.56100464 C131.61351852 192.2900395 131.64339094 188.01912684 131.66955566 183.74798584 C131.69941072 179.38396851 131.74592401 175.02013179 131.79101562 170.65625 C131.87693753 162.10424062 131.94279115 153.55224971 132 145 C124.41 145 116.82 145 109 145 C109.07425367 149.85721444 109.15730476 154.71267185 109.26245117 159.5690918 C109.2955636 161.2187366 109.32363756 162.86849096 109.34643555 164.51831055 C109.38023533 166.89939768 109.43256004 169.27949306 109.48828125 171.66015625 C109.49786613 172.75433617 109.49786613 172.75433617 109.50764465 173.87062073 C109.65074689 178.93271203 110.79574423 182.43994368 113 187 C113.33 187.99 113.66 188.98 114 190 C117.45041465 191.70375715 121.10177809 192.64143516 124.8125 193.625 C125.78832031 193.88539063 126.76414063 194.14578125 127.76953125 194.4140625 C128.50558594 194.60742188 129.24164063 194.80078125 130 195 C130 195.99 130 196.98 130 198 C102.28 198 74.56 198 46 198 C46 197.01 46 196.02 46 195 C46.72445312 194.82984375 47.44890625 194.6596875 48.1953125 194.484375 C57.80445329 192.17381923 57.80445329 192.17381923 64.62426758 185.40576172 C66.31254325 181.22626827 66.47510157 177.78068278 66.51171875 173.3203125 C66.53864555 172.10116653 66.53864555 172.10116653 66.56611633 170.85739136 C66.61998358 168.2799792 66.65403836 165.7027497 66.6875 163.125 C66.72069399 161.36976638 66.75518557 159.61455679 66.79101562 157.859375 C66.87812276 153.57289383 66.93838972 149.28722564 67 145 C59.41 145 51.82 145 44 145 C44.0629774 154.41459906 44.13843768 163.82887285 44.23571491 173.24318123 C44.28039182 177.61490145 44.31965377 181.98652906 44.34643555 186.35839844 C44.37249539 190.57960838 44.41291653 194.80046143 44.46318626 199.02145004 C44.4798369 200.62969388 44.49136241 202.23799942 44.49761391 203.84631729 C44.5072749 206.10381499 44.53535629 208.36040335 44.56762695 210.61767578 C44.58428154 212.54294601 44.58428154 212.54294601 44.60127258 214.5071106 C45.03410567 218.29876884 46.14026971 220.69821131 48 224 C48.33 224.99 48.66 225.98 49 227 C52.45041465 228.70375715 56.10177809 229.64143516 59.8125 230.625 C60.78832031 230.88539063 61.76414062 231.14578125 62.76953125 231.4140625 C63.50558594 231.60742188 64.24164063 231.80078125 65 232 C65 232.99 65 233.98 65 235 C37.28 235 9.56 235 -19 235 C-19 234.01 -19 233.02 -19 232 C-17.89591797 231.70996094 -17.89591797 231.70996094 -16.76953125 231.4140625 C-15.79371094 231.15367187 -14.81789063 230.89328125 -13.8125 230.625 C-12.84957031 230.36976563 -11.88664063 230.11453125 -10.89453125 229.8515625 C-5.64373793 228.57288289 -5.64373793 228.57288289 -1.8125 225.1875 C-1.544375 224.465625 -1.27625 223.74375 -1 223 C-0.65861905 222.26502729 -0.3172381 221.53005459 0.03448772 220.77280998 C1.16970743 217.5126251 1.25454307 214.89892249 1.26069641 211.44754028 C1.26452196 210.80300585 1.26834751 210.15847141 1.27228898 209.49440563 C1.28257705 207.34270349 1.27863491 205.19127029 1.2746582 203.03955078 C1.27900704 201.49353794 1.28419076 199.94752726 1.29014587 198.40151978 C1.3035295 194.20724042 1.3041152 190.01305122 1.30158257 185.81875467 C1.30051231 182.3148434 1.30539771 178.81095033 1.310188 175.30704296 C1.32128123 167.03882858 1.32172179 158.77065963 1.31567383 150.50244141 C1.30963493 141.97901327 1.3219433 133.45575025 1.3432439 124.93235028 C1.36087094 117.60904773 1.36685947 110.28579768 1.36360615 102.9624747 C1.36179473 98.59101744 1.36441535 94.21967792 1.37832069 89.8482399 C1.39091219 85.73597797 1.38894252 81.62397299 1.37590981 77.51171494 C1.37354725 76.00529645 1.37626722 74.49885982 1.38453293 72.99246216 C1.71585471 61.31591345 1.71585471 61.31591345 -3.53515625 51.2578125 C-7.44793818 48.35574918 -9.81757945 46.91824205 -14.625 46.4375 C-15.44226563 46.35371094 -16.25953125 46.26992188 -17.1015625 46.18359375 C-18.04128906 46.09271484 -18.04128906 46.09271484 -19 46 C-19 44.68 -19 43.36 -19 42 C-12.73 42 -6.46 42 0 42 C0 28.14 0 14.28 0 0 Z M10.5 25.4140625 C5.97160993 30.45459193 4 35.2788448 4 42 C24.13 42 44.26 42 65 42 C65 43.32 65 44.64 65 46 C64.41992188 45.95359375 63.83984375 45.9071875 63.2421875 45.859375 C57.56272253 45.59695748 54.46123447 46.14711568 50 50 C44.96294648 55.22816124 43.8742235 58.91764283 43.88647461 66.13354492 C43.88632858 66.85574722 43.88618256 67.57794952 43.8860321 68.32203674 C43.88672855 70.70821134 43.8945084 73.09430779 43.90234375 75.48046875 C43.90420888 77.1352789 43.90563234 78.79008961 43.90663147 80.44490051 C43.91044915 84.79981003 43.92027305 89.15468618 43.93133545 93.50958252 C43.94156567 97.95364938 43.94613255 102.39772163 43.95117188 106.84179688 C43.96189598 115.56121493 43.97948673 124.28059947 44 133 C51.59 133 59.18 133 67 133 C67 94.72 67 56.44 67 17 C37.39274528 14.32810115 37.39274528 14.32810115 10.5 25.4140625 Z M109 17 C109 55.28 109 93.56 109 133 C116.59 133 124.18 133 132 133 C132.06784391 123.45523111 132.12285536 113.91062303 132.15543652 104.36566734 C132.17107579 99.9333028 132.1922822 95.50111214 132.22631836 91.06884766 C132.25897398 86.78945843 132.27686609 82.5102362 132.28463173 78.23073196 C132.29016412 76.60008746 132.3009676 74.96945183 132.31719017 73.33887863 C132.33904734 71.05042701 132.34196353 68.76266072 132.34057617 66.47412109 C132.34723801 65.17284271 132.35389984 63.87156433 132.36076355 62.53085327 C131.88651012 57.88925557 130.44852139 54.53885235 127.24609375 51.13671875 C126.35083984 50.41935547 126.35083984 50.41935547 125.4375 49.6875 C124.83808594 49.19636719 124.23867187 48.70523438 123.62109375 48.19921875 C120.73271829 46.06251691 118.91476098 45.88693199 115.375 45.9375 C114.55773437 45.94652344 113.74046875 45.95554687 112.8984375 45.96484375 C112.27195313 45.97644531 111.64546875 45.98804687 111 46 C111 44.68 111 43.36 111 42 C131.13 42 151.26 42 172 42 C170.9125639 32.2130751 169.1565782 28.26705836 161.85546875 22.3203125 C147.71415516 12.25765146 122.60595176 17 109 17 Z " fill="#0B0B0B" transform="translate(21,11)"/>
</svg>
